<svg xmlns="http://www.w3.org/2000/svg" viewBox="0 0 36.65 36.65">
  <defs>
    <style>
      .cls-1 {
        fill: #1a1818;
      }

      .cls-2 {
        font-size: 18px;
        fill: #fff;
        font-family: InterUI-Bold, Inter UI;
        font-weight: 700;
      }
    </style>
  </defs>
  <title>calendar</title>
  <g id="Layer_2" data-name="Layer 2">
    <g id="Layer_1-2" data-name="Layer 1">
      <path class="cls-1" d="M27.87,0H8.77A8.77,8.77,0,0,0,0,8.77v19.1a8.78,8.78,0,0,0,8.77,8.78h19.1a8.78,8.78,0,0,0,8.78-8.78V8.77A8.78,8.78,0,0,0,27.87,0ZM12.81,10.56a3.18,3.18,0,1,1,0-4.5A3.17,3.17,0,0,1,12.81,10.56Zm15.53,0a3.19,3.19,0,1,1,0-4.5A3.18,3.18,0,0,1,28.34,10.56Z"/>
      <text class="cls-2" transform="translate(7.93 29.13)">22</text>
    </g>
  </g>
</svg>