<svg id="Layer_1" data-name="Layer 1" xmlns="http://www.w3.org/2000/svg" viewBox="0 0 26.5 16.2"><title>text-settings</title><path d="M3.1,15.9,4.4,12h6l1.3,3.9h3.1L9.2,0H5.6L0,15.9ZM5.2,9.7,7.4,3.3h.1L9.7,9.7Zm15,6.5a3.65,3.65,0,0,0,3.5-1.9h.1v1.6h2.7v-8c0-3.2-2.6-4.1-4.9-4.1-2.5,0-4.4,1.1-5.1,3.3l2.6.4A2.71,2.71,0,0,1,21.7,6c1.3,0,2,.7,2,1.8h0c0,.8-.8.8-3,1.1s-4.5.9-4.5,3.6C16.2,14.9,17.9,16.2,20.2,16.2Zm.7-2.1c-1.2,0-2-.5-2-1.6s.9-1.5,2.2-1.7a9.05,9.05,0,0,0,2.6-.6v1.4A2.56,2.56,0,0,1,20.9,14.1Z"/></svg>