<svg id="Layer_1" data-name="Layer 1" xmlns="http://www.w3.org/2000/svg" width="24" height="24" viewBox="0 0 24 24">
  <defs>
    <style>
      .cls-1 {
        fill: #231f20;
      }

      .cls-2 {
        fill: none;
        stroke: #000;
        stroke-linecap: round;
        stroke-miterlimit: 10;
        stroke-width: 3px;
      }
    </style>
  </defs>
  <title>account_1</title>
  <path class="cls-1" d="M6.65,12.11h0a3.39,3.39,0,0,1,.55,0,3.27,3.27,0,0,1-.54,6.5,3.41,3.41,0,0,1-.55,0,3.27,3.27,0,0,1,.54-6.49m0-3a6.27,6.27,0,0,0-1,12.45,6.2,6.2,0,0,0,1,.09A6.27,6.27,0,0,0,7.7,9.2a6.2,6.2,0,0,0-1-.09Z"/>
  <line class="cls-2" x1="9.62" y1="11.39" x2="20.8" y2="3.45"/>
  <line class="cls-2" x1="13.51" y1="8.78" x2="15.74" y2="11.92"/>
  <line class="cls-2" x1="18.35" y1="5.34" x2="21.81" y2="10.22"/>
</svg>

