<svg xmlns="http://www.w3.org/2000/svg" viewBox="0 0 32.8 32.8">
  <defs>
    <style>
    </style>
  </defs>
  <title>gear</title>
  <g id="Layer_2" data-name="Layer 2">
    <g id="Layer_1-2" data-name="Layer 1">
      <path class="cls-1" d="M31.12,12.89h-.71a1.68,1.68,0,0,1-1.57-1.09c-.12-.32-.25-.64-.39-.94A1.68,1.68,0,0,1,28.79,9l.5-.5a1.68,1.68,0,0,0,0-2.38L26.7,3.51a1.68,1.68,0,0,0-2.38,0l-.5.5a1.68,1.68,0,0,1-1.88.34Q21.49,4.14,21,4a1.66,1.66,0,0,1-1.09-1.57V1.68A1.69,1.69,0,0,0,18.23,0H14.57a1.68,1.68,0,0,0-1.68,1.68v.71A1.68,1.68,0,0,1,11.8,4c-.32.12-.64.25-.94.39A1.68,1.68,0,0,1,9,4l-.5-.5a1.68,1.68,0,0,0-2.38,0L3.51,6.1a1.68,1.68,0,0,0,0,2.38L4,9a1.68,1.68,0,0,1,.34,1.88c-.14.3-.27.62-.39.94a1.68,1.68,0,0,1-1.57,1.09H1.68A1.68,1.68,0,0,0,0,14.57v3.66a1.69,1.69,0,0,0,1.68,1.69h.71A1.66,1.66,0,0,1,4,21c.12.32.25.63.39.94A1.67,1.67,0,0,1,4,23.82l-.5.5a1.68,1.68,0,0,0,0,2.38L6.1,29.29a1.68,1.68,0,0,0,2.38,0l.5-.5a1.68,1.68,0,0,1,1.88-.34c.3.14.62.27.94.39a1.68,1.68,0,0,1,1.09,1.57v.71a1.68,1.68,0,0,0,1.68,1.68h3.66a1.69,1.69,0,0,0,1.69-1.68v-.71A1.66,1.66,0,0,1,21,28.84q.48-.18.93-.39a1.68,1.68,0,0,1,1.88.34l.5.5a1.68,1.68,0,0,0,2.38,0l2.59-2.59a1.68,1.68,0,0,0,0-2.38l-.5-.5A1.67,1.67,0,0,1,28.45,22c.14-.31.27-.62.39-.94a1.66,1.66,0,0,1,1.57-1.09h.71a1.69,1.69,0,0,0,1.68-1.69V14.57A1.68,1.68,0,0,0,31.12,12.89ZM20.18,20.18a5.35,5.35,0,1,1,0-7.56A5.34,5.34,0,0,1,20.18,20.18Z"/>
    </g>
  </g>
</svg>
