<svg xmlns="http://www.w3.org/2000/svg" viewBox="0 0 36.15 35.8">
  <defs>
    <style>
    </style>
  </defs>
  <title>new</title>
  <g id="Layer_2" data-name="Layer 2">
    <g id="Layer_1-2" data-name="Layer 1">
      <path class="cls-1" d="M19.15.69l2.47,5.49,5-3.28a1.18,1.18,0,0,1,1.81,1.16l-.89,6,6,0a1.17,1.17,0,0,1,.89,1.95l-4,4.53,5.08,3.22a1.18,1.18,0,0,1-.31,2.13l-5.78,1.66L32,28.93a1.18,1.18,0,0,1-1.41,1.62l-5.76-1.73-.82,6a1.18,1.18,0,0,1-2.06.61l-3.92-4.57-3.91,4.57a1.18,1.18,0,0,1-2.06-.61l-.83-6L5.51,30.55A1.18,1.18,0,0,1,4.1,28.93l2.53-5.46L.85,21.81a1.18,1.18,0,0,1-.3-2.13l5.08-3.22-4-4.53A1.18,1.18,0,0,1,2.55,10l6,0L7.68,4.06A1.18,1.18,0,0,1,9.49,2.9l5,3.28L17,.69A1.18,1.18,0,0,1,19.15.69Z"/>
    </g>
  </g>
</svg>
