<svg width="23" height="27" viewBox="0 0 23 27" fill="none" xmlns="http://www.w3.org/2000/svg">
<g clip-path="url(#clip0)">
<path d="M8.81 19H1V1H16.23V10.88" stroke="black" stroke-width="2" stroke-miterlimit="10"/>
<path d="M4.86035 6H12.7604" stroke="black" stroke-width="2" stroke-miterlimit="10"/>
<path d="M4.86035 9.96001H12.7604" stroke="black" stroke-width="2" stroke-miterlimit="10"/>
<path d="M4.86035 14H9.19035" stroke="black" stroke-width="2" stroke-miterlimit="10"/>
<path d="M17.6937 11.0264L17.3402 10.6729L16.9866 11.0264L6.8866 21.1264L6.53305 21.48L6.8866 21.8335L8.6266 23.5735L8.98016 23.9271L9.33371 23.5735L19.4337 13.4735L19.7873 13.12L19.4337 12.7664L17.6937 11.0264ZM17.3404 9.25657L21.2027 13.1104L8.98016 25.3329L5.1174 21.4701L17.3404 9.25657Z" fill="black" stroke="black"/>
<path d="M21.4867 11.9897L18.4621 8.96502L22.0916 8.36696L21.4867 11.9897Z" fill="black" stroke="black"/>
<path d="M8.11035 19.01L10.7104 21.62" stroke="black" stroke-width="2" stroke-miterlimit="10"/>
</g>
<defs>
<clipPath id="clip0">
<rect width="22.7" height="26.05" fill="white"/>
</clipPath>
</defs>
</svg>
