<svg width="23" height="15" viewBox="0 0 23 15" fill="none" xmlns="http://www.w3.org/2000/svg">
<path d="M3.29164 14L4.37189 10.772H9.29377L10.3804 14H12.9117L8.29661 0.909091H5.36905L0.760387 14H3.29164ZM5.0111 8.86719L6.78169 3.59375H6.88397L8.65456 8.86719H5.0111ZM17.3589 14.1982C18.8994 14.1982 19.8199 13.4759 20.2417 12.6513H20.3184V14H22.5429V7.42898C22.5429 4.83381 20.4271 4.05398 18.5542 4.05398C16.4896 4.05398 14.9044 4.97443 14.393 6.7642L16.5535 7.07102C16.7836 6.39986 17.4356 5.82457 18.567 5.82457C19.6409 5.82457 20.229 6.37429 20.229 7.33949V7.37784C20.229 8.04261 19.5322 8.07457 17.8 8.25994C15.8952 8.46449 14.0734 9.03338 14.0734 11.245C14.0734 13.1754 15.4861 14.1982 17.3589 14.1982ZM17.9598 12.4979C16.9946 12.4979 16.3042 12.0568 16.3042 11.2067C16.3042 10.3182 17.0777 9.94744 18.1132 9.80043C18.7204 9.71733 19.9349 9.56392 20.2354 9.32102V10.478C20.2354 11.571 19.3532 12.4979 17.9598 12.4979Z" fill="black"/>
</svg>
